<?xml version="1.0" standalone="no"?>
<!DOCTYPE svg PUBLIC "-//W3C//DTD SVG 20010904//EN"
 "http://www.w3.org/TR/2001/REC-SVG-20010904/DTD/svg10.dtd">
<svg version="1.0" xmlns="http://www.w3.org/2000/svg"
 width="5100.000000pt" height="3000.000000pt" viewBox="0 400 5100.000000 3000.000000"
 preserveAspectRatio="xMidYMid meet">
<metadata>
  Indie Games Mexico
</metadata>
<g transform="translate(0.000000,3000.000000) scale(0.100000,-0.100000)"
fill="#000000" stroke="none">
<path d="M0 16500 l0 -16500 25500 0 25500 0 0 16500 0 16500 -25500 0 -25500
0 0 -16500z m16760 7660 c1063 -65 1994 -398 2514 -900 269 -259 420 -527 498
-885 l22 -100 3 -1711 3 -1711 -117 27 c-65 15 -657 152 -1315 305 l-1197 278
-4 1371 -3 1371 -22 84 c-43 161 -137 291 -265 365 -155 91 -427 128 -670 91
-179 -27 -288 -76 -395 -179 -73 -69 -132 -177 -159 -291 -16 -65 -18 -375
-20 -4757 l-3 -4688 -1315 0 -1315 0 2 4718 3 4717 23 109 c48 225 124 408
250 596 94 141 297 350 452 465 497 367 1250 624 2060 705 294 29 685 37 970
20z m8015 -333 c222 -21 333 -34 481 -58 1397 -220 2176 -895 2345 -2032 38
-261 40 -447 36 -3562 -4 -3276 0 -3065 -57 -3366 -86 -454 -295 -851 -604
-1146 -429 -411 -1050 -665 -1886 -772 -434 -56 -627 -61 -2553 -61 l-1707 0
2 2097 3 2097 1290 338 c710 185 1300 340 1313 343 l22 5 0 -1771 0 -1771 338
5 c359 5 448 14 631 63 52 13 137 44 188 69 194 91 299 206 355 385 l23 75 0
3605 c0 3470 -1 3607 -18 3665 -97 315 -371 477 -892 525 -60 5 -226 10 -367
10 l-258 0 -2 -2284 -3 -2283 -1240 288 c-682 159 -1273 296 -1312 305 l-73
16 0 2620 0 2619 1888 -4 c1636 -3 1910 -6 2057 -20z m13335 -742 l0 -745
-1595 0 -1595 0 0 -1450 0 -1450 1555 0 1555 0 0 -725 0 -725 -1555 0 -1555 0
0 -1825 0 -1825 1595 0 1595 0 0 -755 0 -755 -2915 0 -2915 0 0 5500 0 5500
2915 0 2915 0 0 -745z m-6810 -4825 l0 -5500 -1470 0 -1470 0 0 5500 0 5500
1470 0 1470 0 0 -5500z m-19310 0 l0 -5430 -1320 0 -1320 0 0 4523 1 4522
1317 907 c724 499 1318 907 1320 907 1 1 2 -2442 2 -5429z m7810 -3470 l0
-1960 -1315 0 -1315 0 0 1618 0 1618 1303 341 c716 188 1308 342 1315 342 9 1
12 -397 12 -1959z m20957 -1641 c378 -42 707 -271 868 -603 149 -309 150 -655
1 -961 -108 -220 -266 -380 -486 -490 -167 -84 -320 -119 -525 -118 -517 1
-941 310 -1079 787 -73 249 -52 520 58 752 61 128 106 194 204 296 168 174
394 293 622 327 41 6 86 13 100 15 52 7 144 6 237 -5z m-11237 -734 c35 -18
60 -52 60 -81 0 -12 -17 -43 -37 -70 -94 -125 -431 -487 -474 -509 -36 -19
-82 -19 -118 0 -33 17 -41 33 -41 85 0 37 12 52 211 267 286 309 301 323 339
323 17 0 44 -7 60 -15z m-16371 -793 c19 -9 42 -28 52 -42 155 -227 1281
-1978 1285 -1999 3 -16 -1 -54 -10 -84 -41 -141 -214 -180 -308 -69 -13 16
-100 149 -193 296 l-168 266 -786 0 -786 0 -175 -276 c-95 -151 -187 -286
-203 -300 -53 -44 -152 -23 -210 45 -25 30 -43 83 -34 98 94 166 1197 1987
1215 2007 47 50 116 76 207 76 57 0 90 -5 114 -18z m-2014 -16 c48 -20 69 -65
69 -151 0 -79 -19 -124 -63 -147 -21 -10 -162 -13 -721 -14 -621 0 -705 -2
-785 -18 -115 -22 -196 -59 -240 -108 l-35 -39 2 -619 3 -619 35 -36 c42 -44
86 -68 171 -92 59 -17 113 -18 664 -18 l600 0 82 28 c100 34 172 81 196 127
15 31 17 62 15 255 l-3 220 -602 5 -601 5 -27 25 c-82 77 -70 189 26 238 l44
22 716 0 c652 -1 719 -3 750 -18 19 -9 39 -28 46 -42 16 -31 18 -702 2 -769
-32 -138 -127 -250 -279 -325 -52 -25 -140 -58 -195 -73 l-100 -27 -575 -4
c-614 -4 -699 1 -868 44 -255 64 -423 209 -462 398 -7 36 -10 255 -8 692 3
636 3 639 25 694 73 178 271 300 573 354 127 23 114 23 838 24 561 2 678 0
707 -12z m9194 1 c47 -24 66 -62 69 -146 4 -86 -10 -130 -51 -153 -17 -10
-161 -13 -662 -14 -445 0 -660 -4 -707 -12 -168 -30 -264 -80 -299 -155 -16
-37 -19 -67 -19 -249 l0 -208 910 0 c1003 0 960 3 1000 -62 18 -27 21 -46 18
-110 -3 -83 -21 -121 -69 -145 -19 -10 -233 -13 -942 -13 l-919 0 4 -207 c3
-172 6 -213 20 -239 39 -72 131 -123 260 -144 39 -6 345 -10 793 -10 481 0
743 -4 768 -11 55 -15 77 -56 77 -142 0 -79 -16 -125 -56 -156 l-28 -22 -785
4 c-758 3 -789 4 -872 24 -233 58 -403 158 -476 281 -14 23 -34 70 -44 103
-18 57 -19 101 -19 682 0 675 0 675 56 778 98 180 316 297 612 328 42 5 361 9
707 10 482 0 636 -2 654 -12z m2550 0 c47 -24 65 -62 69 -143 3 -45 -1 -86 -8
-105 -25 -60 -12 -59 -662 -59 -326 0 -655 -5 -731 -11 -221 -16 -357 -61
-414 -136 -26 -34 -28 -44 -31 -147 -2 -63 1 -126 7 -147 23 -76 121 -130 273
-149 45 -5 256 -10 468 -10 212 0 436 -5 499 -11 286 -27 520 -134 620 -286
58 -88 71 -152 71 -362 0 -208 -13 -292 -56 -371 -14 -27 -38 -60 -53 -74 -75
-71 -220 -130 -401 -163 -83 -15 -194 -17 -900 -20 -639 -3 -810 -1 -830 9
-44 23 -62 73 -57 164 4 97 20 128 74 143 25 7 292 11 768 11 430 0 759 4 800
10 162 23 267 84 285 165 13 56 12 212 -1 260 -17 62 -74 110 -167 139 -118
37 -199 44 -657 61 -621 22 -700 31 -832 96 -133 64 -217 155 -256 274 -19 61
-22 91 -22 240 0 147 4 180 23 241 45 145 144 249 300 314 87 37 188 46 682
60 715 21 1108 23 1139 7z m7151 -2 c46 -24 64 -68 65 -157 0 -62 -4 -82 -21
-105 -41 -55 -42 -55 -734 -50 -363 3 -674 1 -725 -5 -199 -20 -320 -73 -362
-158 -22 -42 -23 -56 -23 -252 l0 -208 910 0 c1003 0 960 3 1000 -62 18 -27
21 -46 18 -110 -3 -83 -21 -121 -69 -145 -19 -10 -233 -13 -942 -13 l-919 0 4
-207 c3 -172 6 -213 20 -239 39 -72 131 -123 260 -144 39 -6 345 -10 793 -10
481 0 743 -4 768 -11 55 -15 77 -56 77 -142 0 -79 -16 -125 -56 -156 l-28 -22
-785 4 c-758 3 -789 4 -872 24 -294 73 -462 196 -519 381 -19 61 -20 95 -20
687 0 598 1 625 20 689 70 225 310 380 645 415 44 5 392 9 773 10 602 1 697
-1 722 -14z m601 2 c15 -7 230 -196 479 -422 248 -225 456 -411 460 -413 5 -2
210 180 456 405 245 224 459 413 474 420 39 17 149 27 204 19 86 -13 128 -75
106 -157 -12 -44 -38 -70 -589 -569 -209 -190 -379 -350 -378 -357 1 -6 214
-205 472 -442 259 -237 485 -450 503 -472 40 -50 44 -112 10 -148 -56 -61
-201 -89 -279 -53 -29 13 -199 163 -507 446 -255 234 -465 426 -468 426 -3 0
-214 -190 -470 -422 -256 -233 -482 -431 -502 -441 -51 -25 -212 -20 -259 7
-53 32 -68 96 -37 162 10 21 200 201 510 486 470 429 494 453 477 469 -10 9
-216 195 -458 414 -242 218 -452 411 -467 428 -35 39 -52 89 -44 131 9 46 25
65 71 81 49 17 200 19 236 2z m2693 -2 c65 -31 61 40 64 -1068 2 -693 -1
-1021 -8 -1048 -18 -66 -53 -81 -182 -77 -89 3 -110 6 -128 23 -51 46 -50 13
-50 1080 0 1050 -1 1037 44 1074 37 31 206 41 260 16z m2511 1 c43 -18 64 -59
72 -139 7 -74 -11 -126 -53 -154 -26 -17 -75 -18 -829 -23 -722 -5 -806 -7
-860 -23 -90 -26 -146 -65 -172 -117 l-23 -44 0 -576 c0 -538 2 -578 19 -615
38 -83 126 -134 275 -160 74 -13 204 -15 807 -15 806 0 782 2 815 -68 22 -48
23 -156 0 -199 -33 -66 2 -63 -821 -63 -458 0 -783 4 -843 11 -176 19 -357 99
-477 211 -66 61 -108 133 -125 215 -7 31 -10 278 -8 699 l3 650 37 76 c90 182
311 312 573 337 44 5 417 9 828 10 626 1 753 -1 782 -13z m2270 -10 c55 -9
124 -23 154 -32 200 -58 339 -192 385 -370 23 -91 24 -1259 1 -1349 -63 -240
-297 -386 -684 -425 -138 -14 -922 -13 -1053 1 -151 16 -279 52 -393 108 -165
83 -253 178 -291 318 -18 63 -19 113 -19 673 0 596 0 606 22 675 77 243 303
377 702 415 48 5 309 7 581 5 402 -2 514 -5 595 -19z m-23110 -13 c22 -12 54
-36 71 -55 17 -18 322 -408 678 -866 357 -459 650 -831 653 -829 2 3 296 389
652 859 724 954 685 909 813 916 120 7 191 -36 217 -133 8 -28 11 -337 11
-1000 0 -894 -1 -962 -18 -995 -26 -52 -70 -70 -174 -70 -96 0 -129 10 -155
49 -17 24 -18 78 -21 769 -1 408 -6 742 -10 742 -4 -1 -259 -339 -567 -752
-522 -700 -564 -753 -613 -781 -108 -60 -254 -44 -338 36 -24 23 -292 371
-595 772 -303 402 -555 732 -560 733 -5 2 -9 -298 -9 -740 0 -725 -1 -744 -20
-776 -26 -43 -54 -52 -158 -52 -63 0 -97 5 -122 18 -68 34 -65 -23 -68 1017
-2 572 1 964 7 1003 18 118 81 166 211 159 50 -2 88 -10 115 -24z m9545 4 c19
-9 48 -28 63 -42 15 -14 318 -400 673 -858 356 -458 652 -838 659 -845 10 -11
133 145 656 835 354 466 655 859 669 872 41 39 99 61 165 61 79 0 125 -14 158
-47 60 -63 57 -11 57 -1085 0 -957 -1 -984 -20 -1015 -25 -42 -77 -56 -193
-51 -86 3 -90 4 -118 36 l-29 32 0 750 c0 413 -3 750 -7 749 -5 0 -255 -333
-558 -740 -302 -407 -568 -756 -590 -775 -91 -80 -262 -85 -360 -10 -18 14
-288 363 -600 776 -312 412 -572 750 -576 750 -5 0 -9 -331 -9 -751 l0 -751
-35 -35 -35 -35 -108 4 c-120 4 -153 17 -171 70 -8 21 -11 338 -11 1011 0 968
0 981 20 1023 21 43 53 70 99 85 42 13 162 5 201 -14z"/>
<path d="M40440 12925 c-285 -58 -523 -272 -621 -558 -162 -472 74 -976 526
-1126 227 -75 467 -57 680 52 114 59 264 209 324 325 88 172 117 301 108 494
-17 408 -285 733 -669 813 -84 18 -260 18 -348 0z m366 -314 c192 -37 287
-138 289 -306 0 -46 -6 -73 -26 -110 -28 -56 -103 -119 -161 -137 -21 -6 -38
-15 -38 -19 0 -4 21 -17 46 -29 52 -26 105 -91 129 -160 9 -25 27 -94 40 -153
14 -60 34 -128 44 -153 l20 -44 -134 0 -134 0 -16 30 c-8 16 -31 88 -50 160
-39 145 -43 155 -77 187 -43 40 -91 53 -198 53 l-100 0 0 -215 0 -215 -125 0
-125 0 0 544 0 543 93 12 c50 7 99 14 107 16 37 7 372 4 416 -4z"/>
<path d="M40468 12433 c-16 -4 -18 -21 -18 -165 l0 -160 118 4 c100 3 124 7
167 28 112 56 128 175 35 253 -17 15 -47 31 -68 37 -36 10 -200 12 -234 3z"/>
<path d="M12742 10784 c-151 -240 -276 -442 -279 -450 -4 -12 81 -14 556 -14
315 0 561 4 561 9 0 13 -550 891 -558 891 -4 0 -130 -196 -280 -436z"/>
<path d="M36875 11274 c-150 -27 -271 -105 -294 -191 -7 -24 -11 -233 -11
-578 0 -501 2 -543 19 -580 34 -76 114 -128 251 -163 57 -15 131 -17 595 -17
472 0 537 2 598 17 144 38 234 103 257 187 7 28 10 215 8 583 -3 541 -3 543
-25 585 -42 77 -142 132 -287 158 -124 21 -990 21 -1111 -1z"/>
</g>
</svg>
