<svg id="a9ff95af-6ae4-4962-9d3c-c8357ad03867" data-name="Layer 1" xmlns="http://www.w3.org/2000/svg" viewBox="0 0 305.34 140.09"><title>indie-games-logo-white</title><g id="aaecb784-9f69-4e74-ac9a-7dcd647731a5" data-name="trademark"><path d="M305.34,120.13a8.66,8.66,0,1,1-8.89-8.43h.26a8.47,8.47,0,0,1,8.63,8.31Zm-15.16,0a6.53,6.53,0,0,0,6.33,6.73h.25a6.45,6.45,0,0,0,6.43-6.49v-.19a6.51,6.51,0,0,0-13-.72q0,.36,0,.72Zm5.19,4.42h-1.95v-8.43a16.8,16.8,0,0,1,3.24-.26,5.24,5.24,0,0,1,2.93.62,2.34,2.34,0,0,1,.82,1.85,2.15,2.15,0,0,1-1.75,2v.11a2.47,2.47,0,0,1,1.54,2,6.26,6.26,0,0,0,.62,2.11h-2.11a7.53,7.53,0,0,1-.67-2.06c-.15-.92-.66-1.33-1.74-1.33h-.93Zm.05-4.78h.93c1.08,0,2-.36,2-1.23s-.56-1.29-1.8-1.29a4.94,4.94,0,0,0-1.08.1Z" style="fill:#f6f7f7"/></g><g id="b65bcc47-2b46-42b1-b59b-696c38f60f65" data-name="games"><path d="M22.48,127.8h-13a1.4,1.4,0,0,0,0,2.8H20.2v4c0,.67-.54,1.19-1.61,1.58a7.13,7.13,0,0,1-2.42.47H8.25c-3.16,0-4.75-.71-4.75-2.13V124q0-2.13,5.66-2.13h1.11a.43.43,0,0,0,.16,0h9.29c.85,0,1.28-.52,1.28-1.57s-.43-1.54-1.28-1.54H8.23a13.06,13.06,0,0,0-5.23,1,4.42,4.42,0,0,0-3,4.17v10.48a4.46,4.46,0,0,0,2.94,4.28,12.71,12.71,0,0,0,5.27,1h8a10.39,10.39,0,0,0,4.93-1.08,4.51,4.51,0,0,0,2.61-4.24V129.1C23.71,128.25,23.3,127.8,22.48,127.8Z" style="fill:#f6f7f7"/><path d="M40.16,119.71a1,1,0,0,1-.12-.23,1,1,0,0,0-.07-.15,1.72,1.72,0,0,0-1.65-.76A2.5,2.5,0,0,0,36,119.71l-11.1,18.43a.73.73,0,0,0-.09.35,1.29,1.29,0,0,0,.6,1,1.83,1.83,0,0,0,1.12.41c.39,0,.76-.27,1.09-.81l3.12-4.91h14.8l3.11,4.91a1.87,1.87,0,0,0,1.65,1,1.62,1.62,0,0,0,1.22-.53,1.88,1.88,0,0,0,.49-1.32,1.31,1.31,0,0,0-.07-.52Zm-7.34,11.37,5.36-8.54,5.33,8.54Z" style="fill:#f6f7f7"/><path d="M84,118.87a2.37,2.37,0,0,0-2,1L70,135.75,57.64,119.89a2.48,2.48,0,0,0-2.06-1,1.72,1.72,0,0,0-2,1.4,1.63,1.63,0,0,0,0,.54v17.56a1.16,1.16,0,0,0,.76,1.26,6.45,6.45,0,0,0,1.52.1c.82,0,1.23-.45,1.23-1.36v-13.6l10.55,14a2.83,2.83,0,0,0,4,.51,2.74,2.74,0,0,0,.51-.51l10.36-13.88v13.53c0,.91.41,1.36,1.23,1.36a6.45,6.45,0,0,0,1.52-.1,1.16,1.16,0,0,0,.76-1.26V121C86,119.57,85.36,118.87,84,118.87Z" style="fill:#f6f7f7"/><path d="M108.37,130.94c.88,0,1.31-.55,1.31-1.66s-.43-1.48-1.29-1.48h-17v-3.66c0-1.51,1.92-2.26,5.77-2.27h9.47c.81,0,1.22-.46,1.22-1.36,0-1.17-.41-1.75-1.22-1.75H96.12q-5.2,0-7.23,2.61a4.36,4.36,0,0,0-.93,2.71v10.38a4.44,4.44,0,0,0,2.81,4.16,12,12,0,0,0,5,1.06h12.55c.82,0,1.23-.59,1.23-1.79q0-1.35-1.23-1.35H95.92q-4.5,0-4.5-2.22v-3.44Z" style="fill:#f6f7f7"/><path d="M129.82,128.45a12.43,12.43,0,0,0-5.32-.94h-6.61a9.78,9.78,0,0,1-1.2-.13c-1.43-.28-2.15-.87-2.15-1.77v-1.5c0-1.47,1.92-2.21,5.76-2.2.92,0,10.94,0,11-.07a1.17,1.17,0,0,0,.74-1.27c0-1.17-.41-1.75-1.23-1.75-3.17,0-14.87.16-16.06.49-2.49.78-3.74,2.39-3.73,4.83v1.58a4,4,0,0,0,1.49,3.25,6.28,6.28,0,0,0,3.25,1.36l1.85.13h1.16l5.83.21c3.18.12,4.76.82,4.76,2.1v1.8q0,2-4.92,2H112.25a1.05,1.05,0,0,0-1,.49,3,3,0,0,0-.19,1.29c0,.91.4,1.36,1.22,1.36h12.15q6.63,0,7.94-2.56a5.68,5.68,0,0,0,.49-2.63v-1.87A4.55,4.55,0,0,0,129.82,128.45Z" style="fill:#f6f7f7"/></g><g id="ac43f9b2-037e-4e97-9f9c-fb726bc3fceb" data-name="mexico"><path d="M174.51,119a2.37,2.37,0,0,0-2,1l-12,15.87L148.14,120a2.48,2.48,0,0,0-2.06-1,1.72,1.72,0,0,0-2,1.4,1.63,1.63,0,0,0,0,.54v17.56a1.16,1.16,0,0,0,.76,1.25,6.45,6.45,0,0,0,1.52.1q1.23,0,1.23-1.35V124.94l10.55,14a2.83,2.83,0,0,0,4,.51,2.74,2.74,0,0,0,.51-.51L173,125v13.54q0,1.35,1.23,1.35a6.45,6.45,0,0,0,1.52-.1,1.15,1.15,0,0,0,.76-1.25V121.14C176.52,119.73,175.82,119,174.51,119Z" style="fill:#f6f7f7"/><path d="M199,131.11c.88,0,1.31-.56,1.31-1.67S199.9,128,199,128H182V124.3q0-2.26,5.77-2.26h10.66c.81,0,1.22-.45,1.22-1.36,0-1.17-.41-1.75-1.22-1.75H186.82q-5.2,0-7.23,2.61a4.36,4.36,0,0,0-.93,2.71v10.38a4.46,4.46,0,0,0,2.81,4.16,11.82,11.82,0,0,0,5,1.06H199c.82,0,1.23-.59,1.23-1.78,0-.91-.41-1.36-1.23-1.36h-12.4q-4.5,0-4.5-2.22v-3.38Z" style="fill:#f6f7f7"/><path d="M216.11,129.25l8.69-7.92a1.61,1.61,0,0,0,.61-1.2c0-.77-.47-1.15-1.42-1.15a3.21,3.21,0,0,0-1.83.31L213.65,127l-8.59-7.78a1.11,1.11,0,0,0-.79-.29,13.71,13.71,0,0,0-1.57,0,1,1,0,0,0-.91,1.08v0a1.62,1.62,0,0,0,.62,1.2l8.72,7.92-9,8.26a1.7,1.7,0,0,0-.63,1.21c0,.8.62,1.2,1.87,1.2a2.3,2.3,0,0,0,1.45-.34l8.86-8,8.76,8a1.87,1.87,0,0,0,1.29.41,3.84,3.84,0,0,0,1.3-.29,1.09,1.09,0,0,0,.76-1,1.73,1.73,0,0,0-.66-1.18Z" style="fill:#f6f7f7"/><path d="M229.59,119h-1l-.56.06a1.17,1.17,0,0,0-.74,1.26v18.23a1.17,1.17,0,0,0,.76,1.27l.6.06h.92q1.23,0,1.23-1.35V120.32C230.82,119.42,230.41,119,229.59,119Z" style="fill:#f6f7f7"/><path d="M240.89,122.09H253.4c.82,0,1.23-.45,1.23-1.36,0-1.17-.41-1.75-1.23-1.75H239.1a10.46,10.46,0,0,0-1.24.14,7.46,7.46,0,0,0-3.38,1.54,4.23,4.23,0,0,0-1.66,3.37v10.41a4.49,4.49,0,0,0,.68,2.6,5.7,5.7,0,0,0,2,1.68,8.66,8.66,0,0,0,2.4.93,21.32,21.32,0,0,0,3.48.2h11.94c.86,0,1.28-.52,1.28-1.58s-.42-1.56-1.28-1.56H241.38q-5,0-5-2.34V124.06C236.35,122.75,237.86,122.1,240.89,122.09Z" style="fill:#f6f7f7"/><path d="M277.61,119.77a15.4,15.4,0,0,0-5.87-.79h-5.47q-8.89,0-8.9,5.67v9.65a4.77,4.77,0,0,0,3.19,4.61,13.62,13.62,0,0,0,5.71,1h5.47q8.94,0,8.94-5.61v-9.64A4.83,4.83,0,0,0,277.61,119.77Zm-.45,14.43q0,2.56-5.31,2.56h-5.59q-5.38,0-5.38-2.56v-9.47q0-2.64,5.38-2.64h5.56c3.56,0,5.33.88,5.33,2.64Z" style="fill:#f6f7f7"/><path d="M189.27,117.83a1.27,1.27,0,0,0,.72-.26,7.71,7.71,0,0,0,.7-.7l1.62-1.74a12.46,12.46,0,0,0,2.3-2.87.83.83,0,0,0-.37-.72,1.23,1.23,0,0,0-.8-.29.7.7,0,0,0-.54.22l-4.41,4.74a1,1,0,0,0-.28.66C188.21,117.51,188.56,117.83,189.27,117.83Z" style="fill:#f6f7f7"/></g><g id="f1a13be0-48f9-4ca5-bf98-a9dbee66817a" data-name="Indie"><path d="M275.21,107.17H220.1V3.17h55.11V17.26H245.07v27.4h29.42V58.39H245.07V92.87h30.14Z" style="fill:#f6f7f7"/><path d="M77.27,20V44.5l25,5.8v-30q0-10.52-11.41-16A48.16,48.16,0,0,0,70.14,0,48.54,48.54,0,0,0,49.27,4.29q-11.44,5.51-11.45,16v86.85h25V20q0-6.58,7.22-6.58T77.27,20Z" style="fill:#f6f7f7"/><polygon points="77.27 76.59 77.27 107.17 102.24 107.17 102.24 70.06 77.27 76.59" style="fill:#f6f7f7"/><polygon points="3.45 21.69 3.45 107.17 28.41 107.17 28.41 4.5 3.45 21.69" style="fill:#f6f7f7"/><path d="M143.25,3H111.82V52.52l25,5.8V15.15h3.35q11.09,0,11.09,6.78v65.8q0,6.78-11.09,6.78h-3.35V61l-25,6.53v39.63H143q33.16,0,33.17-24.43V27.63Q176.25,3,143.25,3Z" style="fill:#f6f7f7"/><rect x="183.08" y="3.84" width="27.83" height="104" style="fill:#f6f7f7"/></g></svg>