<svg xmlns="http://www.w3.org/2000/svg" viewBox="0 0 599.34 202.9">
	<defs>
		<style>
			.cls-1 {
				fill: #f6f7f7;
			}
		</style>
	</defs>
	<title>Indie Games Mexico</title>
	<g id="bg"><rect width="599.34" height="202.9"/></g>
	<g id="trademark"><path
		class="cls-1"
		d="M763.52,551.12a8.66,8.66,0,1,1-8.63-8.43A8.47,8.47,0,0,1,763.52,551.12Zm-15.16,0a6.53,6.53,0,0,0,6.58,6.73,6.46,6.46,0,0,0,6.43-6.68,6.51,6.51,0,1,0-13,0Zm5.19,4.42H751.6v-8.43a17.38,17.38,0,0,1,3.24-.26,5.26,5.26,0,0,1,2.93.62,2.35,2.35,0,0,1,.82,1.85,2.14,2.14,0,0,1-1.75,1.95v.11a2.47,2.47,0,0,1,1.54,2,6.37,6.37,0,0,0,.62,2.11h-2.11a7.56,7.56,0,0,1-.67-2.06c-.15-.92-.66-1.33-1.74-1.33h-.93Zm.05-4.78h.93c1.08,0,2-.36,2-1.23s-.56-1.29-1.8-1.29a4.87,4.87,0,0,0-1.08.1Z"
		transform="translate(-300.07 -398.8)"/></g>
	<g id="games"><path
		class="cls-1"
		d="M480.66,558.79c-.5,0-.89,0-1.19,0a1.55,1.55,0,0,0-.21,0H467.61a1.4,1.4,0,0,0,0,2.8h10.77v3.95c0,.67-.54,1.19-1.61,1.58a7.14,7.14,0,0,1-2.42.47h-7.92c-3.16,0-4.75-.71-4.75-2.13V555q0-2.13,5.66-2.13h.46l.65,0a.35.35,0,0,0,.16,0h9.29c.85,0,1.28-.52,1.28-1.57s-.43-1.54-1.28-1.54H466.41a13.08,13.08,0,0,0-5.23,1,4.43,4.43,0,0,0-3,4.17v10.48a4.46,4.46,0,0,0,2.94,4.28,12.68,12.68,0,0,0,5.27,1h8a10.35,10.35,0,0,0,4.93-1.08,4.52,4.52,0,0,0,2.61-4.24v-5.28C481.89,559.24,481.48,558.79,480.66,558.79Z"
		transform="translate(-300.07 -398.8)"/><path
		class="cls-1"
		d="M498.34,550.7a1,1,0,0,1-.12-.23,1.13,1.13,0,0,0-.07-.15,1.73,1.73,0,0,0-1.65-.76,2.51,2.51,0,0,0-2.34,1.14l-11.1,18.43a.7.7,0,0,0-.09.35,1.3,1.3,0,0,0,.6,1,1.84,1.84,0,0,0,1.12.41c.39,0,.76-.27,1.09-.81l3.12-4.91h14.8l3.11,4.91a1.88,1.88,0,0,0,1.65,1,1.62,1.62,0,0,0,1.22-.53,1.92,1.92,0,0,0,.49-1.32,1.33,1.33,0,0,0-.07-.52ZM491,562.07l5.36-8.54,5.33,8.54Z"
		transform="translate(-300.07 -398.8)"/><path
		class="cls-1"
		d="M542.2,549.86a2.38,2.38,0,0,0-2,1l-12.05,15.88-12.33-15.86a2.51,2.51,0,0,0-2.06-1,1.72,1.72,0,0,0-2,1.94v17.56a1.16,1.16,0,0,0,.76,1.26,6.38,6.38,0,0,0,1.52.1c.82,0,1.23-.45,1.23-1.36v-13.6l10.55,14a2.82,2.82,0,0,0,4.47,0l10.36-13.88v13.53c0,.91.41,1.36,1.23,1.36a6.56,6.56,0,0,0,1.52-.1,1.16,1.16,0,0,0,.76-1.26V552C544.21,550.56,543.54,549.86,542.2,549.86Z"
		transform="translate(-300.07 -398.8)"/><path
		class="cls-1"
		d="M566.55,561.93c.88,0,1.31-.55,1.31-1.66s-.43-1.48-1.29-1.48h-17v-3.66q0-2.26,5.77-2.27h.47l.68,0a.51.51,0,0,0,.19,0h8.13c.81,0,1.22-.46,1.22-1.36,0-1.17-.41-1.75-1.22-1.75H554.3q-5.2,0-7.23,2.61a4.34,4.34,0,0,0-.93,2.71v10.38a4.44,4.44,0,0,0,2.81,4.16,11.84,11.84,0,0,0,5,1.06h12.55c.82,0,1.23-.59,1.23-1.79q0-1.35-1.23-1.35h-12.4q-4.5,0-4.5-2.22v-3.44Z"
		transform="translate(-300.07 -398.8)"/><path
		class="cls-1"
		d="M588,559.44a12.37,12.37,0,0,0-5.32-.94h-4.69c-.76,0-1.4,0-1.92,0a10.14,10.14,0,0,1-1.2-.13c-1.43-.28-2.15-.87-2.15-1.77V555.1q0-2.21,5.76-2.2c.92,0,10.94,0,11-.07a1.17,1.17,0,0,0,.74-1.27c0-1.17-.41-1.75-1.23-1.75-3.17,0-14.87.16-16.06.49q-3.74,1.17-3.73,4.83v1.58a4,4,0,0,0,1.49,3.25,6.26,6.26,0,0,0,3.25,1.36l1.85.13c.5,0,.89,0,1.16,0l5.83.21c3.18.12,4.76.82,4.76,2.1v1.8q0,2-4.92,2H570.43a1.06,1.06,0,0,0-1,.49,3,3,0,0,0-.19,1.29c0,.91.4,1.36,1.22,1.36h12.15q6.63,0,7.94-2.56a5.73,5.73,0,0,0,.49-2.63v-1.87Q591,560.82,588,559.44Z"
		transform="translate(-300.07 -398.8)"/></g>
	<g id="mexico"><path
		class="cls-1"
		d="M632.69,550a2.38,2.38,0,0,0-2,1l-12.05,15.87L606.32,551a2.5,2.5,0,0,0-2.06-1,1.72,1.72,0,0,0-2,1.94v17.56a1.16,1.16,0,0,0,.76,1.25,6.38,6.38,0,0,0,1.52.1q1.23,0,1.23-1.35V555.93l10.55,14a2.82,2.82,0,0,0,4.47,0L631.19,556v13.54q0,1.35,1.23,1.35a6.56,6.56,0,0,0,1.52-.1,1.16,1.16,0,0,0,.76-1.25V552.13C634.7,550.72,634,550,632.69,550Z"
		transform="translate(-300.07 -398.8)"/><path
		class="cls-1"
		d="M657.2,562.1c.88,0,1.31-.56,1.31-1.67s-.43-1.48-1.29-1.48h-17v-3.66q0-2.26,5.77-2.26h.47l.68,0a.47.47,0,0,0,.19,0h9.32c.81,0,1.22-.45,1.22-1.36,0-1.17-.41-1.75-1.22-1.75H645q-5.21,0-7.23,2.61a4.36,4.36,0,0,0-.93,2.71v10.38a4.45,4.45,0,0,0,2.81,4.16,11.82,11.82,0,0,0,5,1.06H657.2c.82,0,1.23-.59,1.23-1.78,0-.91-.41-1.36-1.23-1.36H644.8q-4.5,0-4.5-2.22V562.1Z"
		transform="translate(-300.07 -398.8)"/><path
		class="cls-1"
		d="M674.29,560.24l8.69-7.92a1.64,1.64,0,0,0,.61-1.2c0-.77-.47-1.15-1.42-1.15a3.23,3.23,0,0,0-1.83.31L671.83,558l-8.59-7.78a1.13,1.13,0,0,0-.79-.29,13.6,13.6,0,0,0-1.57,0,1,1,0,0,0-.91,1.1,1.62,1.62,0,0,0,.62,1.2l8.72,7.92-9,8.26a1.7,1.7,0,0,0-.63,1.21c0,.8.62,1.2,1.87,1.2a2.3,2.3,0,0,0,1.45-.34l8.86-8,8.76,8a1.85,1.85,0,0,0,1.29.41,3.86,3.86,0,0,0,1.3-.29,1.11,1.11,0,0,0,.76-1,1.73,1.73,0,0,0-.66-1.18Z"
		transform="translate(-300.07 -398.8)"/><path class="cls-1" d="M687.77,550l-1,0-.56.06a1.16,1.16,0,0,0-.74,1.26v18.23a1.18,1.18,0,0,0,.76,1.27l.6.06.92,0q1.23,0,1.23-1.35V551.31C689,550.41,688.59,550,687.77,550Z" transform="translate(-300.07 -398.8)"/><path
		class="cls-1"
		d="M699.07,553.08h12.51c.82,0,1.23-.45,1.23-1.36,0-1.17-.41-1.75-1.23-1.75H699c-.67,0-1.24,0-1.72,0a11.05,11.05,0,0,0-1.24.14,7.52,7.52,0,0,0-3.38,1.54,4.24,4.24,0,0,0-1.66,3.37v10.41a4.49,4.49,0,0,0,.68,2.6,5.67,5.67,0,0,0,2,1.68,8.59,8.59,0,0,0,2.4.93,21.54,21.54,0,0,0,3.48.2H711.5c.86,0,1.28-.52,1.28-1.58s-.42-1.56-1.28-1.56H699.56q-5,0-5-2.34V555.05Q694.52,553.09,699.07,553.08Z"
		transform="translate(-300.07 -398.8)"/><path
		class="cls-1"
		d="M735.79,550.76a15.29,15.29,0,0,0-5.87-.79h-5.47q-8.9,0-8.9,5.67v9.65a4.77,4.77,0,0,0,3.19,4.61,13.55,13.55,0,0,0,5.71,1h5.47q8.94,0,8.94-5.61v-9.64A4.83,4.83,0,0,0,735.79,550.76Zm-.45,14.43q0,2.56-5.31,2.56h-5.59q-5.38,0-5.38-2.56v-9.47q0-2.64,5.38-2.64H730c3.56,0,5.33.88,5.33,2.64Z"
		transform="translate(-300.07 -398.8)"/><path
		class="cls-1"
		d="M647.45,548.82a1.25,1.25,0,0,0,.72-.26,6.8,6.8,0,0,0,.7-.7l1.62-1.74a12.44,12.44,0,0,0,2.3-2.87.86.86,0,0,0-.37-.72,1.23,1.23,0,0,0-.8-.29.7.7,0,0,0-.54.22l-4.41,4.74a1,1,0,0,0-.28.66C646.39,548.5,646.74,548.82,647.45,548.82Z"
		transform="translate(-300.07 -398.8)"/></g>
	<g id="Indie"><path class="cls-1" d="M733.39,538.16H678.28v-104h55.11v14.09H703.25v27.4h29.42v13.73H703.25v34.48h30.14Z" transform="translate(-300.07 -398.8)"/><path class="cls-1" d="M535.45,450.94v24.55l25,5.8v-30q0-10.51-11.41-16.05A48.06,48.06,0,0,0,528.32,431a48.55,48.55,0,0,0-20.87,4.28Q496,440.79,496,451.31v86.85h25V450.94q0-6.58,7.22-6.58T535.45,450.94Z" transform="translate(-300.07 -398.8)"/><polygon class="cls-1" points="235.38 108.78 235.38 139.36 260.35 139.36 260.35 102.25 235.38 108.78"/><polygon class="cls-1" points="161.56 53.88 161.56 139.36 186.52 139.36 186.52 36.69 161.56 53.88"/><path class="cls-1" d="M601.43,434H570v49.51l25,5.8V446.14h3.35q11.08,0,11.09,6.78v65.8q0,6.78-11.09,6.78H595V492l-25,6.53v39.63h31.21q33.16,0,33.17-24.43V458.62Q634.42,434,601.43,434Z" transform="translate(-300.07 -398.8)"/><rect class="cls-1" x="341.19" y="36.03" width="27.83" height="104"/></g>
</svg>
