<svg id="a470795c-8757-42ff-85eb-073a7f4f3d2f" data-name="Layer 1" xmlns="http://www.w3.org/2000/svg" xmlns:xlink="http://www.w3.org/1999/xlink" viewBox="0 0 53.84 56.27"><defs><linearGradient id="b83d51cc-0f43-4319-adef-e81cd040dfe8" x1="18.82" y1="19.74" x2="32.26" y2="37.27" gradientUnits="userSpaceOnUse"><stop offset="0" stop-color="#787878"/><stop offset="1" stop-color="#2f2e2e"/></linearGradient><linearGradient id="fdb2050e-6835-48f9-915a-d248dd7a7a82" x1="8.93" y1="5.88" x2="39.59" y2="45.88" xlink:href="#b83d51cc-0f43-4319-adef-e81cd040dfe8"/><linearGradient id="bbd2fe84-af44-4f59-84b4-409e0f175a8b" x1="34.36" y1="26.74" x2="16.25" y2="7.54" xlink:href="#b83d51cc-0f43-4319-adef-e81cd040dfe8"/><radialGradient id="ee222bff-df70-4694-a190-d7aa2684fb50" cx="24.16" cy="13.05" r="23.62" gradientUnits="userSpaceOnUse"><stop offset="0" stop-color="#9f9fa4"/><stop offset="1" stop-color="#6a6b70"/></radialGradient></defs><title>joystick-up</title><ellipse cx="27.44" cy="30.14" rx="21.5" ry="20.68" style="fill:#3f8899"/><ellipse cx="26.7" cy="30.02" rx="9.5" ry="12.64" style="stroke:#2b2b2b;stroke-miterlimit:10;stroke-width:0.846763890371939px;fill:url(#b83d51cc-0f43-4319-adef-e81cd040dfe8)"/><path d="M26.92,2.93A26.42,26.42,0,1,0,53.34,29.35,26.42,26.42,0,0,0,26.92,2.93Zm0,44.44a18,18,0,1,1,18-18A18,18,0,0,1,26.92,47.37Z" style="stroke:#2b2b2b;stroke-miterlimit:10;fill:url(#fdb2050e-6835-48f9-915a-d248dd7a7a82)"/><circle cx="26.92" cy="18.88" r="18.37" style="fill:#848587;stroke:#232323;stroke-miterlimit:10;stroke-width:1.0223846769045px"/><circle cx="26.71" cy="18.63" r="15.82" style="fill:url(#bbd2fe84-af44-4f59-84b4-409e0f175a8b)"/><circle cx="26.35" cy="18.63" r="14.59" style="fill:url(#ee222bff-df70-4694-a190-d7aa2684fb50)"/></svg>