<svg id="b2863a84-66c4-46e9-8a21-c226aaf5bf39" data-name="Layer 1" xmlns="http://www.w3.org/2000/svg" xmlns:xlink="http://www.w3.org/1999/xlink" viewBox="0 0 53.84 54"><defs><linearGradient id="e3a81bcb-8f8a-42a7-903a-daa9091cfb90" x1="18.82" y1="14.96" x2="32.26" y2="32.49" gradientUnits="userSpaceOnUse"><stop offset="0" stop-color="#787878"/><stop offset="1" stop-color="#2f2e2e"/></linearGradient><linearGradient id="b9a2fb80-5e3d-4968-b605-04f3b5a68fc5" x1="8.93" y1="3.45" x2="39.59" y2="43.45" xlink:href="#e3a81bcb-8f8a-42a7-903a-daa9091cfb90"/><linearGradient id="a6e9af44-967d-4489-b757-e9807e4ca0e4" x1="34.36" y1="42.98" x2="16.25" y2="23.79" xlink:href="#e3a81bcb-8f8a-42a7-903a-daa9091cfb90"/><radialGradient id="e9cf51bf-ab54-4049-8af2-888b8f16ccc2" cx="24.16" cy="29.29" r="23.62" gradientUnits="userSpaceOnUse"><stop offset="0" stop-color="#9f9fa4"/><stop offset="1" stop-color="#6a6b70"/></radialGradient></defs><title>joystick-down</title><ellipse cx="26.95" cy="25.25" rx="21.5" ry="20.68" style="fill:#3f8899"/><ellipse cx="26.7" cy="25.25" rx="9.5" ry="12.64" style="stroke:#2b2b2b;stroke-miterlimit:10;stroke-width:0.846763890371939px;fill:url(#e3a81bcb-8f8a-42a7-903a-daa9091cfb90)"/><path d="M26.92.5A26.42,26.42,0,1,0,53.34,26.92,26.42,26.42,0,0,0,26.92.5Zm0,44.44a18,18,0,1,1,18-18A18,18,0,0,1,26.92,44.94Z" style="stroke:#2b2b2b;stroke-miterlimit:10;fill:url(#b9a2fb80-5e3d-4968-b605-04f3b5a68fc5)"/><circle cx="26.92" cy="35.12" r="18.37" style="fill:#848587;stroke:#232323;stroke-miterlimit:10;stroke-width:1.0223846769045px"/><circle cx="26.71" cy="34.87" r="15.82" style="fill:url(#a6e9af44-967d-4489-b757-e9807e4ca0e4)"/><circle cx="26.35" cy="34.87" r="14.59" style="fill:url(#e9cf51bf-ab54-4049-8af2-888b8f16ccc2)"/></svg>